<svg xmlns="http://www.w3.org/2000/svg" viewBox="0 0 498.9 322.21"><defs><style>.cls-1{fill:#231f20;}</style></defs><g id="Layer_2" data-name="Layer 2"><g id="Layer_1-2" data-name="Layer 1"><path class="cls-1" d="M313.42,117.4c-24.19.14-48.38.07-72.57.07H228.4l-.77-1.18a33.22,33.22,0,0,0,3.71-2.82c17.6-17.53,35.12-35.13,52.76-52.61,2.15-2.13,2.53-3.28.14-5.65-8.68-8.55-17.5-16.9-27.5-23.93C211-.88,161.05-8.63,108.67,9.84,50.17,30.46,14.94,72.78,2.38,133.71c-.76,3.69-.25,7.65-2.38,11v3.9c1.09.28.92,1.1.82,1.9h0c0,.65,0,1.3,0,1.95h0a1.64,1.64,0,0,1-.84,2v13.64a1.63,1.63,0,0,1,.83,2h0c0,.65,0,1.3,0,2h0c.12.8.28,1.63-.82,1.9v3.9c1.3.38.93,1.52,1,2.4a159.45,159.45,0,0,0,12.61,45.61C31,264.06,58.91,291.83,97.3,308.69c31.48,13.82,64.33,16.88,97.93,9.94a157.11,157.11,0,0,0,66.22-30.86c27-21.28,45.61-48.31,55.47-81.3,8.37-28,8.23-56.16,2-84.55C318.15,118.17,316.91,117.38,313.42,117.4ZM214.05,281.78c-45.49,18.92-89.45,14.12-129.91-14.4-28.51-20.09-46.35-47.83-52.31-82.24-8.19-47.27,5.5-87.91,40.75-120.48C102,37.53,137.28,26.78,176.89,30.9c25,2.59,47.51,12,67.58,27.67-6.4,6.45-12.84,12.79-19.11,19.3-2,2.1-3.17.25-4.44-.61C202,64.41,181,58.54,158.15,59c-39.7.85-78.12,27.84-92.55,64.81C41.32,186,81.35,252,145.48,262.37c50,8.11,97.36-20.68,114.53-68.89,2-5.61,3.93-11.24,6.14-17.55h-5.39c-26.46,0-52.93-.14-79.39.13-4.5.05-5.32-1.3-5.11-5.36.33-6.8.19-13.63,0-20.45-.06-2.56.38-3.63,3.34-3.62q55.29.17,110.56,0c2.61,0,3.06.83,3.28,3.26A130,130,0,0,1,214.05,281.78Zm-67-80.72c0,3.5.95,4.21,4.29,4.18,21.26-.16,42.52-.08,63.78-.08H220c-13.92,22-48.43,34.07-76.1,26.91-32.23-8.33-53.69-34.23-56-67.64C85.8,135.2,105,105.46,133.41,94c31.16-12.6,65.23-3.69,88.07,23.49-23.76,0-46.79.06-69.81-.06-3.29,0-4.7.28-4.67,4.29C147.23,148.15,147.19,174.61,147,201.06Z"/><path class="cls-1" d="M0,148.65v1.95l.5,0C.49,149.89.59,149.19,0,148.65Z"/><path class="cls-1" d="M.5,152.41v-1.52c-.16.05-.32,0-.5-.29v2l.5,0Z"/><path class="cls-1" d="M.82,150.55l-.32,0v.32A.63.63,0,0,0,.82,150.55Z"/><path class="cls-1" d="M0,152.55v1.95a2,2,0,0,0,.5-1.66C.34,152.89.18,152.8,0,152.55Z"/><path class="cls-1" d="M.5,152.84c.12,0,.23-.13.33-.34l-.33,0Z"/><path class="cls-1" d="M0,168.14v1.94l.5,0C.48,169.42.61,168.69,0,168.14Z"/><path class="cls-1" d="M.5,171.89v-1.51c-.17.05-.34,0-.5-.3V172l.5,0Z"/><path class="cls-1" d="M.5,170.22v.16a.61.61,0,0,0,.33-.25h0l-.33,0Z"/><path class="cls-1" d="M0,172V174a2,2,0,0,0,.5-1.65C.32,172.38.16,172.29,0,172Z"/><path class="cls-1" d="M.5,172.33a.62.62,0,0,0,.32-.25h0l-.32,0Z"/><path class="cls-1" d="M498.9,120.9c0-2.72-.69-3.57-3.47-3.49-7.46.19-14.93-.06-22.39.13-2.75.06-3.56-.71-3.49-3.48.19-7.46-.06-14.94.13-22.4.06-2.76-.74-3.49-3.49-3.48q-40.41.15-80.83,0c-2.73,0-3.57.69-3.5,3.47.19,7.62,0,15.26.12,22.88,0,2.34-.63,3-3,3-7.46-.14-14.94.12-22.4-.13-3.19-.1-4,.81-4,4,.18,13.14.08,26.29.08,39.44,0,13.64.07,27.27-.07,40.91,0,2.73.69,3.57,3.47,3.49,7.46-.19,14.94.06,22.4-.13,2.75-.06,3.56.71,3.49,3.48-.19,7.46.06,14.94-.13,22.4-.07,2.76.73,3.49,3.48,3.48q40.43-.15,80.84,0c2.73,0,3.57-.69,3.5-3.47-.2-7.46.05-14.93-.13-22.4-.07-2.74.71-3.56,3.47-3.49,7.47.19,14.94-.06,22.4.13,2.76.07,3.49-.73,3.48-3.48Q498.75,161.32,498.9,120.9ZM466,176c-7.3-.14-14.61.09-21.9-.12-2.88-.08-3.94.5-3.82,3.66.26,7.46,0,14.93.13,22.39.05,2.42-.46,3.39-3.15,3.32-7.62-.2-15.26-.23-22.88,0-3,.09-3.34-1.16-3.3-3.67.14-7.46,0-14.93.1-22.39.05-2.42-.45-3.48-3.15-3.31-3.88.24-7.79.06-11.68.06-3.73,0-7.47-.13-11.2,0-2.42.11-3.38-.46-3.31-3.15.19-7.63.22-15.26,0-22.88-.09-3,1.15-3.35,3.66-3.3,7.3.14,14.61-.08,21.91.12,2.88.08,3.93-.5,3.82-3.66-.27-7.46,0-14.93-.14-22.39,0-2.42.46-3.38,3.16-3.32,7.62.2,15.25.23,22.87,0,3-.1,3.35,1.14,3.3,3.66-.14,7.3.09,14.61-.12,21.91-.08,2.87.5,3.93,3.66,3.82,7.46-.27,14.93,0,22.39-.14,2.42,0,3.39.46,3.32,3.15-.2,7.63-.22,15.26,0,22.88C469.78,175.72,468.54,176,466,176Z"/></g></g></svg>