<svg xmlns="http://www.w3.org/2000/svg" viewBox="0 0 498.51 498.49"><defs><style>.cls-1{fill:#231f20;}</style></defs><g id="Layer_2" data-name="Layer 2"><g id="Layer_1-2" data-name="Layer 1"><path class="cls-1" d="M245.19,0a5.64,5.64,0,0,1-6.82,0Z"/><path class="cls-1" d="M259.81,0A5.64,5.64,0,0,1,253,0Z"/><path class="cls-1" d="M60.94,86.81C28.5,124,7.9,167.18,2.15,216.15-9.2,312.66,24.52,391.06,101.41,450.33a225.32,225.32,0,0,0,113.31,46.09C312.08,507.5,391.27,474,450.87,396c25-32.75,39.3-70.36,45.4-111.09.75-5,.49-10.16,2.24-15V264c-1.84-1.68-.62-3.87-.93-5.8h0c.15-1.67-.65-3.52.93-4.91V246.5a5.66,5.66,0,0,1,0-6.82v-7.8c-1.95-6.13-1.76-12.58-2.75-18.86q-11.85-75.5-63.45-131.76c-35.94-39.21-80.06-64.52-132-76A180.61,180.61,0,0,0,269.57.9c-1,0-2.34.6-2.94-.9h-6.82A10,10,0,0,1,253,0h-7.8a10,10,0,0,1-6.82,0h-8.76C224,2,218,1.8,212.2,2.72,151.54,12.38,101.2,40.69,60.94,86.81ZM289.17,465.87a223.07,223.07,0,0,1-80.28,0c-2.85-.52-3.72-1.41-3.7-4.27.11-21.27,0-42.53.09-63.79.06-11.44,2.95-21.86,10.25-31.15,6.49-8.23,12-17.22,18.38-26.46-10.5-1.74-20.35-3.18-30.13-5-23.66-4.44-45.42-12.92-62.65-30.52-19.59-20-27.09-44.22-24.94-71.86A96,96,0,0,1,137,179.4c4.22-5.34,5-11.26,3.27-17.85a89.93,89.93,0,0,1-1.43-38.5c.58-3.28,1.69-3.4,4.5-2.72,7.63,1.84,14.58,5.23,21.36,9,6,3.27,11.79,6.77,17.53,10.41a23.44,23.44,0,0,0,19.44,3,188.25,188.25,0,0,1,52.89-6.37,152.12,152.12,0,0,1,37.4,5.4c10,2.86,18.74,1.82,27.55-4.08,10.85-7.27,22.14-13.94,35-17.29,3.51-.91,4.35-.2,4.93,3.26,2,12,2,23.91-1.1,35.63-2.2,8.31-.91,15.23,4.28,22.26,20.61,27.9,25.28,58.76,14.34,91.47-7.84,23.44-24.45,39.59-46.37,50.55-17,8.52-35.44,11.9-54.05,14.57-3.83.55-7.65,1.23-12.31,2,6.36,9.25,11.8,18.11,18.19,26.22,7.53,9.55,10.47,20.25,10.49,32,0,20.94-.05,41.88.07,62.82C293,464.18,292.33,465.3,289.17,465.87ZM462,195.77c19.14,76.14,1,144.34-51.69,202.8-23.75,26.35-52.9,45-86.12,57.29a11.86,11.86,0,0,1-2,.28c0-20,0-39.63,0-59.27,0-11.63-1.49-23-6.93-33.4-1.67-3.2.65-3.15,2.24-3.62a153.42,153.42,0,0,0,36.39-15.7c33-20,52.21-49.2,56.88-87.47,3.95-32.38-3-62.42-21.74-89.42a6.31,6.31,0,0,1-1-5.33c2.84-15.94,3.25-31.88-.56-47.77-4.85-20.25-17-27.61-37.39-23.06-16.11,3.59-30,11.82-43.82,20.19a11,11,0,0,1-9,1.49,197.11,197.11,0,0,0-96.2,0,10.38,10.38,0,0,1-8.61-1.35c-11.89-7.2-23.89-14.24-37.31-18.38a86,86,0,0,0-15.67-3.23c-12.47-1.42-22.15,5.07-26.7,17.79-4.74,13.22-5.51,26.9-4.37,40.74a122.34,122.34,0,0,0,2,14.42c.45,2.16-.57,3.36-1.52,4.8C85.22,203.42,79.83,242,93.42,282.53c10.64,31.76,32.85,53.71,62.77,68.1a172.75,172.75,0,0,0,27.69,10.18c-3.54,7.73-6.45,15.51-7.09,23.91-.1,1.22-.9,1.79-2.17,2.23-14.44,4.92-28.56,3-37.94-10.68-6.81-9.9-13.4-19.93-23.41-27-9.21-6.55-19.19-10.68-30.71-10.16-1.36.06-3-.46-2.69,2.09.89,8.05,1.57,16.13,2.38,24.2.14,1.31-.24,2.8,2.12,3,9.22.75,15,6.92,20.33,13.58,4.63,5.84,8,12.57,13.22,18,14.61,15.35,32.41,21.29,53.31,18.21,1.44-.21,2.9-.28,4.79-.45,0,12.28,0,24.43,0,36.58,0,3.23-1.93,1.46-3.25,1a200.63,200.63,0,0,1-42.86-21.36c-42.52-27.83-72.52-65.66-89.17-113.7A209,209,0,0,1,29.64,236C33.78,178.18,57.17,129.29,99.05,89.5,133.89,56.4,175.46,36.9,223.34,31,331.83,17.66,435,88.31,462,195.77Z"/><path class="cls-1" d="M498.51,246.5v-6.82A10.11,10.11,0,0,0,498.51,246.5Z"/><path class="cls-1" d="M498,258.29c.25,1.91-.54,3.91.5,5.74v-5.84l-.49,0A.19.19,0,0,1,498,258.29Z"/><path class="cls-1" d="M498.05,257.86c.15,0,.3.11.46.33v-4.87C497.59,254.75,498.12,256.34,498.05,257.86Z"/><path class="cls-1" d="M498.05,257.86c-.17,0-.32.12-.47.37l.44,0Z"/></g></g></svg>