<?xml version="1.0" standalone="no"?>
<!DOCTYPE svg PUBLIC "-//W3C//DTD SVG 20010904//EN"
 "http://www.w3.org/TR/2001/REC-SVG-20010904/DTD/svg10.dtd">
<svg version="1.0" xmlns="http://www.w3.org/2000/svg"
 width="512.000000pt" height="512.000000pt" viewBox="0 0 512.000000 512.000000"
 preserveAspectRatio="xMidYMid meet">

<g transform="translate(0.000000,512.000000) scale(0.100000,-0.100000)"
fill="#000000" stroke="none">
<path d="M220 4513 c-64 -22 -126 -69 -161 -122 -63 -96 -59 19 -57 -1851 l3
-1705 27 -57 c31 -66 90 -127 156 -159 l47 -24 2325 0 2325 0 47 24 c66 32
125 93 156 159 l27 57 0 1725 0 1725 -27 57 c-31 66 -90 127 -156 159 l-47 24
-2310 2 c-2081 2 -2314 1 -2355 -14z m1256 -928 c915 -667 1053 -765 1084
-765 29 0 66 23 225 139 105 76 577 420 1049 765 l860 626 58 0 c78 0 132 -23
160 -69 20 -31 23 -52 26 -157 l4 -121 -39 -30 c-98 -77 -2335 -1703 -2343
-1703 -4 0 -541 388 -1192 863 l-1183 862 0 125 c0 107 3 130 20 158 28 46 86
72 161 72 l61 0 1049 -765z m2884 751 c-31 -29 -1790 -1306 -1800 -1306 -8 0
-1767 1276 -1800 1306 -12 12 273 14 1800 14 1540 0 1812 -2 1800 -14z m-3966
-721 l186 -137 -2 -1351 -3 -1352 -134 -3 c-153 -3 -200 11 -236 70 -20 32
-20 58 -23 1477 -2 1231 0 1442 12 1438 7 -3 97 -67 200 -142z m4544 -1297
l-3 -1443 -23 -37 c-35 -57 -80 -69 -237 -66 l-130 3 -3 1352 -2 1352 192 140
c106 77 196 141 201 141 4 0 6 -649 5 -1442z m-3301 390 c477 -347 879 -636
895 -642 20 -7 36 -7 57 1 16 6 419 295 895 642 476 347 868 631 871 631 3 0
5 -578 5 -1285 l0 -1285 -1800 0 -1800 0 0 1285 c0 707 3 1285 6 1285 3 0 395
-284 871 -632z"/>
</g>
</svg>
