<svg xmlns="http://www.w3.org/2000/svg" viewBox="0 0 498.9 498.86"><defs><style>.cls-1{fill:#231f20;}</style></defs><g id="Layer_2" data-name="Layer 2"><g id="Layer_1-2" data-name="Layer 1"><path class="cls-1" d="M.17,73.4q-.4,176-.08,352c0,41.06,32.3,73.34,73.36,73.37q176,.1,352.05,0c36.62,0,66.75-25.83,72.49-61.76.09-.55.6-1,.91-1.54V64.3a5.82,5.82,0,0,1-.63-2.44c-1.79-7.07-3.29-14.22-6.73-20.8-11.82-22.6-30-36.32-55.38-40.22-.63-.1-1.28-.12-1.57-.84H63.39c-7,2.32-14.29,3.35-21,6.74C15.14,20.62.25,42.72.17,73.4ZM77.11,29.22H249.55q86.46,0,172.92,0c7.66,0,15.19,1,22.14,4.51,17.46,8.87,25,23.62,25,42.68q.06,123.74,0,247.45,0,49.44,0,98.88c0,10.59-2.37,20.51-8.95,29.14-9.62,12.59-22.7,17.69-38.12,17.69H231.63c-52,0-103.92.08-155.87,0-18.91,0-33.38-8-42.08-25.23-3.27-6.5-4.34-13.58-4.35-20.72q-.09-174.14,0-348.28c0-22.3,12.26-38.52,33.38-44.5A52.85,52.85,0,0,1,77.11,29.22Z"/><path class="cls-1" d="M249.24,380.94C321.86,381.06,381,322,381,249.41,381,177,322.12,118,249.71,117.89,177.09,117.77,118,176.82,118,249.43,118,321.85,176.84,380.82,249.24,380.94Zm-.44-233.79c56,.26,102.44,43.92,102.79,101.83.34,56-43.83,102.06-101.43,102.54-56,.48-102.44-43.75-102.79-101.67C147,193.88,191.2,148.36,248.8,147.15Z"/><path class="cls-1" d="M395.43,147.11A43.84,43.84,0,1,0,351.79,103,44,44,0,0,0,395.43,147.11Zm0-58.4c7.67-.15,14.62,6.59,14.77,14.35s-6.59,14.62-14.35,14.78-14.61-6.59-14.77-14.36S387.65,88.87,395.41,88.71Z"/></g></g></svg>