<svg xmlns="http://www.w3.org/2000/svg" viewBox="0 0 498.9 498.86"><defs><style>.cls-1{fill:#231f20;}</style></defs><g id="Layer_2" data-name="Layer 2"><g id="Layer_1-2" data-name="Layer 1"><path class="cls-1" d="M.17,73.4q-.4,176-.08,352c0,41.06,32.3,73.34,73.36,73.37q176,.1,352.05,0c36.62,0,66.75-25.83,72.49-61.76.09-.55.6-1,.91-1.54V64.3a5.82,5.82,0,0,1-.63-2.44c-1.79-7.07-3.29-14.22-6.73-20.8-11.82-22.6-30-36.32-55.38-40.22-.63-.1-1.28-.12-1.57-.84H63.39c-7,2.32-14.29,3.35-21,6.74C15.14,20.62.25,42.72.17,73.4ZM76.43,29.23q173.16,0,346.33,0c23,0,39.41,12.1,45.36,33.54a51.77,51.77,0,0,1,1.55,14q0,86.46,0,172.92,0,86.71,0,173.41c0,18.91-7.93,33.39-25.18,42.11-6.64,3.36-13.87,4.4-21.19,4.4q-173.89.07-347.79,0c-22.34,0-38.52-12.17-44.55-33.3a49,49,0,0,1-1.63-13.45q0-173.4,0-346.82c0-22.78,11.92-39,33.2-45.11A50.16,50.16,0,0,1,76.43,29.23Z"/><path class="cls-1" d="M205.56,406.68c0,3.49.61,4.6,4.4,4.57q39.19-.3,78.4,0c3.89,0,5.12-.68,5.08-4.89-.25-22.39-.12-44.8-.12-67.2,0-10.55-.18-21.1.06-31.65.26-10.93,10-17.77,19.76-14.13,6,2.27,9.4,7.92,9.4,16,0,32.46.08,64.93-.09,97.39,0,3.71,1,4.47,4.53,4.45q39.43-.25,78.88,0c3.69,0,4.48-.92,4.47-4.52q-.22-53.81,0-107.61c0-12-1.61-23.63-6.05-34.7-11.39-28.33-30.82-48.28-60.71-56.94-16.72-4.85-33.28-3.48-50.37,2,1.07-4.38-.77-4.95-4.23-4.93q-39.45.22-78.89,0c-3.61,0-4.5.8-4.5,4.47Q205.74,307.83,205.56,406.68Zm29.3-138.23c0-10.39.09-20.78-.06-31.16,0-2.69.61-3.61,3.44-3.53,7.46.2,14.93.18,22.39,0,2.7-.07,3.59.62,3.53,3.44-.19,8.38-.07,16.76-.07,26,7.46-5.6,14.12-10.5,20.67-15.54,39.79-30.62,84.22-5.79,94.3,34.49A68.22,68.22,0,0,1,381,299c0,26.13-.06,52.26.07,78.39,0,3.38-.41,4.85-4.34,4.63a205.79,205.79,0,0,0-20.93,0c-3.61.17-4.13-1.13-4.11-4.36.14-23.53.22-47.06,0-70.6-.23-28-24.49-48-52-43.18-20.39,3.58-35.48,21.64-35.63,43.07q-.25,35.3.05,70.6c0,3.67-.87,4.64-4.51,4.47-6.8-.32-13.64-.33-20.44,0-3.69.18-4.48-.9-4.47-4.51C234.92,341.16,234.86,304.8,234.86,268.45Z"/><path class="cls-1" d="M88.63,406.75c0,3.62.82,4.52,4.48,4.49q39.45-.25,78.9,0c3.65,0,4.51-.85,4.49-4.49-.16-33-.09-65.91-.09-98.87s-.07-65.92.09-98.88c0-3.63-.83-4.52-4.48-4.5q-39.45.27-78.91,0c-3.64,0-4.49.85-4.48,4.48Q88.83,307.87,88.63,406.75Zm33.7-173c7,.34,14,.27,20.94,0,3.19-.11,4,.81,4,4-.12,32-.07,64-.07,96,0,14.77-.1,29.55.07,44.32,0,3.16-.75,4.11-4,4-7.13-.26-14.29-.25-21.42,0-3.19.11-4-.81-4-4,.14-23.37.08-46.75.08-70.13,0-23.22.09-46.43-.09-69.65C117.83,234.62,118.65,233.56,122.33,233.73Z"/><path class="cls-1" d="M88.65,171.46c0,3.17.78,4,4,4,13.15-.19,26.3-.08,39.45-.08,13.48,0,27-.1,40.43.08,3.17,0,4-.8,4-4q-.19-39.93,0-79.87c0-3.17-.79-4-4-4q-39.94.19-79.88,0c-3.17,0-4,.79-4,4Q88.85,131.52,88.65,171.46Zm32-54.59c4,.15,8.11,0,12.17,0,3.89,0,7.79.13,11.68,0,2.2-.1,2.72.7,2.69,2.77-.1,8-.12,15.91,0,23.86,0,2.19-.71,2.71-2.78,2.69q-11.92-.16-23.85,0c-2.2,0-2.72-.7-2.69-2.77.1-7.95.12-15.91,0-23.86C117.87,117.37,118.6,116.8,120.68,116.87Z"/></g></g></svg>